<svg xmlns="http://www.w3.org/2000/svg" xmlns:cc="http://web.resource.org/cc/" xmlns:svg="http://www.w3.org/2000/svg" id="svg2" width="18" height="18"><metadata id="metadata7"/><g id="layer1"><g id="g2110"><path id="path2059" fill="#00008b" fill-opacity="1" stroke="none" stroke-dasharray="none" stroke-linejoin="round" stroke-miterlimit="4" stroke-opacity="1" stroke-width="39.984" d="M 17.971654 9.0000000 A 8.9716539 8.9716539 0 1 1 0.028346062,9.0000000 A 8.9716539 8.9716539 0 1 1 17.971654 9.0000000 z" transform="matrix(0.000000,-1.003160,1.003160,0.000000,-2.844000e-2,18.02844)"/><rect id="rect2061" width="9" height="18" x="-9" y="0" fill="#00008b" fill-opacity="1" stroke="none" stroke-dasharray="none" stroke-linejoin="round" stroke-miterlimit="4" stroke-opacity="1" stroke-width="39.984" transform="matrix(0.000000,-1.000000,1.000000,0.000000,0.000000,0.000000)"/></g></g><g id="layer4" display="inline"><text id="text2114" x="3.749" y="-3.408" fill="#fff" fill-opacity="1" stroke="#fff" stroke-linecap="butt" stroke-linejoin="round" stroke-opacity="1" stroke-width="1" font-family="Helvetica" font-size="18" font-stretch="normal" font-style="normal" font-variant="normal" font-weight="bold" text-anchor="start" transform="scale(1.000000,-1.000000)" writing-mode="lr-tb" xml:space="preserve" style="text-align:start;line-height:125%"><tspan id="tspan2118" x="3.749" y="-3.408">−</tspan></text></g><g id="layer2" display="none"><path id="text2082" fill="#fff" fill-opacity="1" stroke="none" stroke-linecap="butt" stroke-linejoin="miter" stroke-opacity="1" stroke-width="1" d="M 2.9678210,9.0332227 C 2.9678314,9.5015070 3.1752531,9.8938504 3.5900866,10.210254 C 3.6463464,10.254553 3.9451742,10.453889 4.4865710,10.808262 L 8.1568835,13.247754 C 8.2693886,13.323691 8.4240759,13.393300 8.6209460,13.456582 C 8.8107943,13.519862 9.0041535,13.551503 9.2010240,13.551504 C 9.5736843,13.551503 9.8936056,13.431269 10.160789,13.190801 C 10.427980,12.950332 10.561574,12.659238 10.561572,12.317520 C 10.561574,11.861896 10.322511,11.488536 9.8443836,11.197442 L 8.5998522,10.428575 L 14.548408,10.428575 C 15.026535,10.428577 15.406221,10.298849 15.687470,10.039395 C 15.968721,9.7799443 16.109345,9.4318977 16.109345,8.9952540 C 16.109345,8.5396330 15.961690,8.1915865 15.666377,7.9511133 C 15.364034,7.7106494 14.980831,7.5904152 14.516767,7.5904102 L 8.6314928,7.5904102 L 9.9920390,6.7076368 C 10.160793,6.5937365 10.290871,6.4481897 10.382274,6.2709962 C 10.466652,6.0874870 10.508840,5.8913153 10.508837,5.6824805 C 10.508840,5.3281127 10.378761,5.0338552 10.118602,4.7997070 C 9.8584498,4.5655745 9.5279814,4.4485043 9.1271961,4.4484962 C 8.7615757,4.4485043 8.4029823,4.5624104 8.0514147,4.7902149 L 3.9697741,7.5239649 C 3.6393151,7.7454540 3.4002529,7.9542820 3.2525866,8.1504493 C 3.0627532,8.3972503 2.9678314,8.6756875 2.9678210,8.9857618 L 2.9678210,9.0332227" font-family="Verdana" font-size="12" font-stretch="normal" font-style="normal" font-variant="normal" font-weight="normal" text-anchor="start" writing-mode="lr-tb" style="text-align:start;line-height:125%"/></g><g id="layer3" display="none"><path id="path2107" fill="#fff" fill-opacity="1" stroke="none" stroke-dasharray="none" stroke-linejoin="round" stroke-miterlimit="4" stroke-opacity="1" stroke-width="39.984" d="M 9.3471551,9.5937489 L 5.5311469,7.3905753 L 1.7151384,5.1874015 L 5.5311469,2.9842283 L 9.3471555,0.78105489 L 9.3471553,5.1874018 L 9.3471551,9.5937489 z" transform="matrix(0.000000,-1.331000,1.331000,0.000000,2.038879,16.92102)"/></g></svg>